<svg width="17" height="17" viewBox="0 0 17 17" fill="none" xmlns="http://www.w3.org/2000/svg">
<g id="SVG">
<path id="Vector" fill-rule="evenodd" clip-rule="evenodd" d="M3.12988 8.16983C3.12988 8.0107 3.1931 7.85809 3.30562 7.74557C3.41814 7.63304 3.57075 7.56983 3.72988 7.56983H12.2403L8.91388 4.40183C8.85441 4.34788 8.80637 4.28254 8.77261 4.20968C8.73884 4.13683 8.72005 4.05794 8.71734 3.97768C8.71463 3.89743 8.72805 3.81745 8.75682 3.74248C8.78559 3.66751 8.82911 3.59908 8.88481 3.54124C8.9405 3.4834 9.00725 3.43732 9.08108 3.40575C9.15491 3.37418 9.23433 3.35774 9.31462 3.35743C9.39492 3.35711 9.47447 3.37291 9.54855 3.4039C9.62262 3.43489 9.68973 3.48043 9.74588 3.53783L14.1459 7.73783C14.204 7.7938 14.2501 7.8609 14.2817 7.93513C14.3132 8.00935 14.3295 8.08918 14.3295 8.16983C14.3295 8.25048 14.3132 8.33031 14.2817 8.40453C14.2501 8.47876 14.204 8.54586 14.1459 8.60183L9.74588 12.8018C9.68973 12.8592 9.62262 12.9048 9.54855 12.9358C9.47447 12.9667 9.39492 12.9826 9.31462 12.9822C9.23433 12.9819 9.15491 12.9655 9.08108 12.9339C9.00725 12.9023 8.9405 12.8563 8.88481 12.7984C8.82911 12.7406 8.78559 12.6722 8.75682 12.5972C8.72805 12.5222 8.71463 12.4422 8.71734 12.362C8.72005 12.2817 8.73884 12.2028 8.77261 12.13C8.80637 12.0571 8.85441 11.9918 8.91388 11.9378L12.2403 8.76983H3.72988C3.57075 8.76983 3.41814 8.70662 3.30562 8.59409C3.1931 8.48157 3.12988 8.32896 3.12988 8.16983Z" fill="#3B82F6"/>
</g>
</svg>
